<svg xmlns="http://www.w3.org/2000/svg" width="42" height="47" viewBox="0 0 42 47" shape-rendering="geometricPrecision" text-rendering="geometricPrecision" image-rendering="optimizeQuality" fill-rule="evenodd" clip-rule="evenodd"><defs><style><![CDATA[
    .fil0 {fill:#A4C639}
   ]]></style></defs><path class="fil0" d="M8 12h26c0-3-1-5-3-7l2-5-3 4c-2-2-4-3-8-3h-2c-4 0-6 1-8 3L9 0l2 5c-2 2-3 4-3 7zm31 4c2 0 3 1 3 3v12c0 2-1 3-3 3-1 0-3-1-3-3V19c0-2 2-3 3-3zm-5-2H8v19c0 2 1 4 3 4v7c0 2 2 3 3 3 2 0 3-1 3-3v-7h8v7c0 2 1 3 3 3 1 0 3-1 3-3v-7c2 0 3-2 3-4V14zM3 16c1 0 3 1 3 3v12c0 2-2 3-3 3-2 0-3-1-3-3V19c0-2 1-3 3-3zm22-9c0-1 1-2 2-2s1 1 1 2 0 1-1 1-2 0-2-1zM14 7c0-1 1-2 2-2 0 0 1 1 1 2s-1 1-1 1c-1 0-2 0-2-1z" id="Слой_x0020_1"/></svg>