<svg xmlns="http://www.w3.org/2000/svg" width="27" height="34" viewBox="0 0 27 34" shape-rendering="geometricPrecision" text-rendering="geometricPrecision" image-rendering="optimizeQuality" fill-rule="evenodd" clip-rule="evenodd"><defs><style><![CDATA[
    .fil0 {fill:#D22856}
   ]]></style></defs><path class="fil0" d="M14 0L0 1v25l14 8 13-8V1L14 0zm11 12L14 5h-1L2 12V3l12-1 11 1v9zM13 7l12 6-5 3-7-4v1l6 4h-1l-5-3v2l4 2-1 1-3-2v1l2 1-2 1-11-6 11-7zM2 15l11 7v1l-8-5v2l8 4v1l-8-4v1l8 5h1l8-5v-5l3-2v10l-11 7-12-7V15z" id="Слой_x0020_1"/></svg>