<svg xmlns="http://www.w3.org/2000/svg" width="74" height="23" viewBox="0 0 74 23" shape-rendering="geometricPrecision" text-rendering="geometricPrecision" image-rendering="optimizeQuality" fill-rule="evenodd" clip-rule="evenodd"><defs><style><![CDATA[
    .fil0 {fill:white}
   ]]></style></defs><path class="fil0" d="M0 1l1-1h7c5 0 9 3 9 7 0 5-4 8-9 8H3v7s-1 1-2 1l-1-1V1zm56 0l1-1c1 0 2 1 2 1v13L71 0h1c1 0 1 1 1 1v1l-8 8 9 11v1l-1 1c-1 0-1 0-1-1l-9-10-4 5v5s-1 1-2 1l-1-1V1zM31 1s0-1 1-1 1 0 2 1l13 17V1l1-1c1 0 2 1 2 1v21s-1 1-2 1c0 0-1 0-1-1L33 4v18s0 1-1 1-1-1-1-1V1zm-9 0s0-1 1-1 1 1 1 1v21s0 1-1 1-1-1-1-1V1zM8 13c4 0 6-3 6-5V7c0-3-2-4-6-4H3v10h5z" id="Слой_x0020_1"/></svg>