<svg xmlns="http://www.w3.org/2000/svg" width="145" height="40" viewBox="0 0 145 40" shape-rendering="geometricPrecision" text-rendering="geometricPrecision" image-rendering="optimizeQuality" fill-rule="evenodd" clip-rule="evenodd"><defs><style><![CDATA[
    .fil0 {fill:#FEFEFE}
   ]]></style></defs><path class="fil0" d="M127 18c0-1 1-1 1-1 1 0 1 0 1 1v12l13-13h1c1 0 1 0 1 1v1l-8 8 8 10 1 1c0 1-1 2-1 2-1 0-1-1-2-1l-8-10-5 5v4c0 1 0 2-1 2 0 0-1-1-1-2V18zM60 28L55 6c-1-2-3-6-9-6l-1 1c0 1 1 2 1 2 5 0 6 4 6 4l5 20h-3c0-6-5-11-11-11s-11 5-12 11h-2c-1-6-6-11-12-11S6 21 6 27H3L8 7s1-4 6-4c1 0 1-1 1-2 0 0 0-1-1-1-6 0-8 4-9 6L0 28v1h1v1h5c0 5 5 10 11 10s11-5 12-10h2c1 5 6 10 12 10s11-5 11-10h5v-1h1v-1zm-43 9c-4 0-8-3-8-7v-2-1c0-5 4-8 8-8 5 0 9 3 9 8v3c0 4-4 7-9 7zm26 0c-5 0-8-3-9-7v-2-1c1-5 4-8 9-8 4 0 8 3 9 8v3c-1 4-5 7-9 7zm28-19l1-1h7c6 0 9 3 9 7 0 5-4 7-9 7h-5v7c0 1-1 2-2 2 0 0-1-1-1-2V18zm8 11c4 0 6-2 6-5s-2-5-6-5h-5v10h5zm14-11c0-1 0-1 1-1s1 0 1 1v20c0 1 0 2-1 2s-1-1-1-2V18zm9 0c0-1 0-1 1-1h1l1 1 13 17V18c0-1 1-1 1-1 1 0 2 0 2 1v20c0 1-1 2-2 2l-1-1-14-18v17c0 1 0 2-1 2s-1-1-1-2V18z" id="Слой_x0020_1"/></svg>