<svg xmlns="http://www.w3.org/2000/svg" width="145" height="40" viewBox="0 0 145 40" shape-rendering="geometricPrecision" text-rendering="geometricPrecision" image-rendering="optimizeQuality" fill-rule="evenodd" clip-rule="evenodd"><defs><style><![CDATA[
    .fil0 {fill:#FEFEFE}
    .fil1 {fill:#D22856}
   ]]></style></defs><g id="Слой_x0020_1"><g id="_767027136"><path class="fil0" d="M71 18l1-1h8c5 0 8 3 8 7 0 5-4 8-9 8h-5v6c0 1-1 2-2 2 0 0-1-1-1-2V18zm-28 1c0-1-1-1-2-1s-1-1-2-1h-2 1c1 0 2 1 2 2v1c1-1 2-1 3-1zm50-1s0-1 1-1 1 1 1 1v20c0 1 0 2-1 2s-1-1-1-2V18zm9 0s0-1 1-1 1 0 2 1l13 17V18s1-1 2-1l1 1v20c0 1-1 2-1 2h-1s0-1-1-1l-14-18v17c0 1 0 2-1 2s-1-1-1-2V18zm25 0l1-1c1 0 2 1 2 1v13l12-14h1c1 0 1 1 1 1v1l-8 8 9 10v1c0 1-1 2-1 2-1 0-1-1-1-1l-9-10-4 5v4c0 1-1 2-2 2 0 0-1-1-1-2V18zM60 28L55 7c-1-3-3-7-9-7-1 0-1 1-1 1 0 1 0 2 1 2 5 0 6 4 6 4l5 20h-2c-1-4-3-7-6-9-1 1-1 1-1 2v1c2 1 3 3 4 6v3c-1 4-5 7-9 7-5 0-8-3-9-7v-2-1c0-1 0-2 1-3-1 0-2-1-2-2-1 1-2 3-2 5h-2c-1-6-6-11-12-11S6 21 6 27H3L8 7s1-4 6-4c1 0 1-1 1-2 0 0 0-1-1-1-6 0-8 4-9 7L0 28v1h1v1h5v1c0-1 1-2 2-2h1c-1 0-1-1-1-1s0-1 1-1c0-5 4-8 8-8 5 0 8 3 9 8v3c-1 4-4 7-9 7-2 0-4-1-5-2 0 1-1 1-1 1h-1v1c2 2 4 3 7 3 6 0 11-5 12-10h2c1 5 6 10 12 10s11-5 12-10h4v-1h1v-1zm19 1c4 0 6-2 6-5s-2-4-6-4h-5v9h5z"/><path class="fil1" d="M11 34c-2 0-3-1-3-3 0 2-1 3-3 3 2 0 3 1 3 2 0-1 1-2 3-2zm87-24c-2 0-4-2-4-4 0 2-2 4-4 4 2 0 4 1 4 3 0-2 2-3 4-3zm-48 6c-2 0-4-2-4-4 0 2-2 4-5 4 3 0 5 2 5 4 0-2 2-4 4-4zm-12 3c-2 0-3-1-3-2 0 1-1 2-3 2 2 0 3 2 3 3 0-1 1-3 3-3z"/></g></g></svg>