<svg xmlns="http://www.w3.org/2000/svg" width="50" height="24" viewBox="0 0 50 24" shape-rendering="geometricPrecision" text-rendering="geometricPrecision" image-rendering="optimizeQuality" fill-rule="evenodd" clip-rule="evenodd"><defs><style><![CDATA[
    .fil0 {fill:#FEFEFE}
   ]]></style></defs><g id="Слой_x0020_1"><g id="miu"><g id="editor_list_view_hambuger_menu_glyph"><path id="path-1" class="fil0" d="M1 0S0 0 0 1v2c0 1 0 1 1 1h48s1 0 1-1V1c0-1 0-1-1-1H1zm0 10s-1 0-1 1v2c0 1 0 1 1 1h48s1 0 1-1v-2c0-1 0-1-1-1H1zm0 10s-1 0-1 1v2c0 1 0 1 1 1h48s1 0 1-1v-2c0-1 0-1-1-1H1z"/><path id="path-1_1_" class="fil0" d="M1 0S0 0 0 1v2c0 1 0 1 1 1h48s1 0 1-1V1c0-1 0-1-1-1H1zm0 10s-1 0-1 1v2c0 1 0 1 1 1h48s1 0 1-1v-2c0-1 0-1-1-1H1zm0 10s-1 0-1 1v2c0 1 0 1 1 1h48s1 0 1-1v-2c0-1 0-1-1-1H1z"/></g></g></g></svg>