<svg xmlns="http://www.w3.org/2000/svg" width="6.689mm" height="5.419mm" viewBox="0 0 669 542" shape-rendering="geometricPrecision" text-rendering="geometricPrecision" image-rendering="optimizeQuality" fill-rule="evenodd" clip-rule="evenodd"><defs><style><![CDATA[
    .fil0 {fill:black}
   ]]></style></defs><path class="fil0" d="M615 337c-24-21-56-31-98-31h-48c4-35 11-63 21-84 9-22 24-43 43-64 20-21 40-38 60-51 19-13 44-29 76-47L633 0c-21 13-47 29-78 49-30 20-60 45-87 73s-50 60-68 96c-19 36-28 75-28 119 0 61 12 111 37 148 25 38 66 57 123 57 37 0 66-12 87-37 21-24 32-50 32-79 0-39-12-69-36-89zM162 158c20-21 40-38 59-51s45-29 76-47L261 0c-21 13-46 29-77 49s-60 45-88 73c-26 28-49 60-68 96S0 293 0 337c0 61 12 111 37 148 25 38 66 57 124 57 37 0 65-12 87-37 21-24 31-50 31-79 0-39-12-69-35-89-24-21-57-31-98-31H97c4-35 11-63 22-85 10-22 24-43 43-63z" id="Слой_x0020_1"/></svg>