<svg xmlns="http://www.w3.org/2000/svg" width="24" height="20" viewBox="0 0 24 20" shape-rendering="geometricPrecision" text-rendering="geometricPrecision" image-rendering="optimizeQuality" fill-rule="evenodd" clip-rule="evenodd"><defs><style><![CDATA[
    .fil0 {fill:#F42357}
   ]]></style></defs><g id="Слой_x0020_1"><path class="fil0" d="M15 0c3-1 5 0 6 2 1-1 1-1 2-1 0 1 0 2-1 2 1 0 2-1 2-1 0 2-1 3-2 3-1 9-5 15-14 15H7c-1 0-6-1-7-2 3 0 5-1 7-2-2 0-4-1-5-4h2c-2-1-4-2-3-5 0 1 1 1 1 1-1-1-2-5-1-7 3 3 6 5 10 5 1-3 2-5 4-6z" id="W6EeEF_1_"/></g></svg>