<?xml version="1.0" encoding="UTF-8"?>
<!DOCTYPE svg PUBLIC "-//W3C//DTD SVG 1.1//EN" "http://www.w3.org/Graphics/SVG/1.1/DTD/svg11.dtd">
<!-- Creator: CorelDRAW X7 -->
<svg xmlns="http://www.w3.org/2000/svg" xml:space="preserve" width="42px" height="47px" version="1.1" style="shape-rendering:geometricPrecision; text-rendering:geometricPrecision; image-rendering:optimizeQuality; fill-rule:evenodd; clip-rule:evenodd"
viewBox="0 0 42 47"
 xmlns:xlink="http://www.w3.org/1999/xlink"
 enable-background="new 0 0 42.084 47.041">
 <defs>
  <style type="text/css">
   <![CDATA[
    .fil0 {fill:#A4C639}
   ]]>
  </style>
 </defs>
 <g id="Слой_x0020_1">
  <metadata id="CorelCorpID_0Corel-Layer"/>
  <path class="fil0" d="M8 12l26 0c0,-3 -1,-5 -3,-7l2 -5c0,0 0,0 0,0 0,0 0,0 0,0l-3 4c-2,-2 -4,-3 -8,-3l-2 0c-4,0 -6,1 -8,3l-3 -4c0,0 0,0 0,0 0,0 0,0 0,0l2 5c-2,2 -3,4 -3,7zm31 4l0 0c2,0 3,1 3,3l0 12c0,2 -1,3 -3,3l0 0c-1,0 -3,-1 -3,-3l0 -12c0,-2 2,-3 3,-3zm-5 -2l-26 0c0,0 0,0 0,0l0 19c0,2 1,4 3,4l0 7c0,2 2,3 3,3 2,0 3,-1 3,-3l0 -7 8 0 0 7c0,2 1,3 3,3 1,0 3,-1 3,-3l0 -7c2,0 3,-2 3,-4l0 -19c0,0 0,0 0,0zm-31 2l0 0c1,0 3,1 3,3l0 12c0,2 -2,3 -3,3l0 0c-2,0 -3,-1 -3,-3l0 -12c0,-2 1,-3 3,-3zm22 -9c0,-1 1,-2 2,-2 1,0 1,1 1,2 0,0 0,0 0,0 0,1 0,1 -1,1 -1,0 -2,0 -2,-1 0,0 0,0 0,0zm-11 0c0,-1 1,-2 2,-2 0,0 1,1 1,2 0,0 0,0 0,0 0,1 -1,1 -1,1 -1,0 -2,0 -2,-1 0,0 0,0 0,0z"/>
 </g>
</svg>
