<?xml version="1.0" encoding="UTF-8"?>
<!DOCTYPE svg PUBLIC "-//W3C//DTD SVG 1.1//EN" "http://www.w3.org/Graphics/SVG/1.1/DTD/svg11.dtd">
<!-- Creator: CorelDRAW X7 -->
<svg xmlns="http://www.w3.org/2000/svg" xml:space="preserve" width="9px" height="20px" version="1.1" style="shape-rendering:geometricPrecision; text-rendering:geometricPrecision; image-rendering:optimizeQuality; fill-rule:evenodd; clip-rule:evenodd"
viewBox="0 0 9 20"
 xmlns:xlink="http://www.w3.org/1999/xlink"
 enable-background="new 0 0 8.673 18.944">
 <defs>
  <style type="text/css">
   <![CDATA[
    .fil0 {fill:#F42357}
   ]]>
  </style>
 </defs>
 <g id="Слой_x0020_1">
  <metadata id="CorelCorpID_0Corel-Layer"/>
  <path class="fil0" d="M7 4c0,0 1,0 2,0 0,-2 0,-3 0,-4 -1,0 -2,0 -3,0 -3,0 -4,3 -4,6l-2 0 0 4 2 0c0,3 0,7 0,10 1,0 3,0 4,0 0,-3 0,-7 0,-10l3 0 0 -4 -3 0c0,-1 0,-2 1,-2z"/>
 </g>
</svg>
