<?xml version="1.0" encoding="UTF-8"?>
<!DOCTYPE svg PUBLIC "-//W3C//DTD SVG 1.1//EN" "http://www.w3.org/Graphics/SVG/1.1/DTD/svg11.dtd">
<!-- Creator: CorelDRAW X7 -->
<svg xmlns="http://www.w3.org/2000/svg" xml:space="preserve" width="27px" height="34px" version="1.1" style="shape-rendering:geometricPrecision; text-rendering:geometricPrecision; image-rendering:optimizeQuality; fill-rule:evenodd; clip-rule:evenodd"
viewBox="0 0 27 34"
 xmlns:xlink="http://www.w3.org/1999/xlink"
 enable-background="new 0 0 26.943 34.09">
 <defs>
  <style type="text/css">
   <![CDATA[
    .fil0 {fill:#D22856}
   ]]>
  </style>
 </defs>
 <g id="Слой_x0020_1">
  <metadata id="CorelCorpID_0Corel-Layer"/>
  <path class="fil0" d="M14 0l0 0 -14 1 0 25 14 8 13 -8 0 0 0 -25 -13 -1zm11 12l-11 -7 0 0 -1 0 0 0 0 0 -11 7 0 -9 12 -1 11 1 0 9zm-12 -5l12 6 -5 3 -7 -4 0 1 6 4 -1 0 -5 -3 0 2 4 2 -1 1 -3 -2 0 1 2 1 -2 1 -11 -6 11 -7zm-11 8l11 7 0 1 -8 -5 0 2 8 4 0 1 -8 -4 0 1 8 5 1 0 8 -5 0 -1 0 0 0 -4 3 -2 0 10 -11 7 -12 -7 0 -10z"/>
 </g>
</svg>
