<?xml version="1.0" encoding="UTF-8"?>
<!DOCTYPE svg PUBLIC "-//W3C//DTD SVG 1.1//EN" "http://www.w3.org/Graphics/SVG/1.1/DTD/svg11.dtd">
<!-- Creator: CorelDRAW X7 -->
<svg xmlns="http://www.w3.org/2000/svg" xml:space="preserve" width="74px" height="23px" version="1.1" style="shape-rendering:geometricPrecision; text-rendering:geometricPrecision; image-rendering:optimizeQuality; fill-rule:evenodd; clip-rule:evenodd"
viewBox="0 0 74 23"
 xmlns:xlink="http://www.w3.org/1999/xlink"
 enable-background="new 0 0 74.426 22.859">
 <defs>
  <style type="text/css">
   <![CDATA[
    .fil0 {fill:white}
   ]]>
  </style>
 </defs>
 <g id="Слой_x0020_1">
  <metadata id="CorelCorpID_0Corel-Layer"/>
  <path class="fil0" d="M0 1c0,0 1,-1 1,-1l7 0c5,0 9,3 9,7l0 0c0,5 -4,8 -9,8l-5 0 0 7c0,0 -1,1 -2,1 0,0 -1,-1 -1,-1l0 -21zm56 0c0,0 1,-1 1,-1 1,0 2,1 2,1l0 13 12 -14c1,0 1,0 1,0 1,0 1,1 1,1 0,1 0,1 0,1l-8 8 9 11c0,0 0,0 0,1 0,0 -1,1 -1,1 -1,0 -1,0 -1,-1l-9 -10 -4 5 0 5c0,0 -1,1 -2,1 0,0 -1,-1 -1,-1l0 -21 0 0zm-25 0c0,0 0,-1 1,-1l0 0c1,0 1,0 2,1l13 17 0 -17c0,0 1,-1 1,-1 1,0 2,1 2,1l0 21c0,0 -1,1 -2,1l0 0c0,0 -1,0 -1,-1l-14 -18 0 18c0,0 0,1 -1,1 -1,0 -1,-1 -1,-1l0 -21zm-9 0c0,0 0,-1 1,-1 1,0 1,1 1,1l0 21c0,0 0,1 -1,1 -1,0 -1,-1 -1,-1l0 -21 0 0zm-14 12c4,0 6,-3 6,-5l0 -1c0,-3 -2,-4 -6,-4l-5 0 0 10 5 0z"/>
 </g>
</svg>
