<?xml version="1.0" encoding="UTF-8"?>
<!DOCTYPE svg PUBLIC "-//W3C//DTD SVG 1.1//EN" "http://www.w3.org/Graphics/SVG/1.1/DTD/svg11.dtd">
<!-- Creator: CorelDRAW X7 -->
<svg xmlns="http://www.w3.org/2000/svg" xml:space="preserve" width="145px" height="40px" version="1.1" style="shape-rendering:geometricPrecision; text-rendering:geometricPrecision; image-rendering:optimizeQuality; fill-rule:evenodd; clip-rule:evenodd"
viewBox="0 0 145 40"
 xmlns:xlink="http://www.w3.org/1999/xlink"
 enable-background="new 0 0 146.3 40.375">
 <defs>
  <style type="text/css">
   <![CDATA[
    .fil1 {fill:#283645}
    .fil0 {fill:#D22856}
   ]]>
  </style>
 </defs>
 <g id="Слой_x0020_1">
  <metadata id="CorelCorpID_0Corel-Layer"/>
  <g id="_765761696">
   <path class="fil0" d="M43 19c0,0 0,0 0,0 0,-1 -1,-1 -2,-1 -1,0 -1,-1 -2,-1 0,0 -1,0 -2,0 0,0 1,0 1,0 1,0 2,1 2,2 0,1 0,1 0,1 1,-1 2,-1 3,-1zm17 9c0,0 0,0 0,0 0,0 0,0 0,0 0,0 0,0 0,0l-5 -21c-1,-3 -3,-7 -9,-7 -1,0 -1,1 -1,1 0,1 0,2 1,2 5,0 6,4 6,4l5 20 -2 0c-1,-4 -3,-7 -6,-9 -1,1 -1,1 -1,2 0,1 0,1 0,1 2,1 3,3 4,6 0,0 0,1 0,1 0,1 0,1 0,2 -1,4 -5,7 -9,7 -5,0 -8,-3 -9,-7 0,-1 0,-1 0,-2 0,0 0,-1 0,-1 0,-1 0,-2 1,-3 -1,0 -2,-1 -2,-2 0,0 0,0 0,0 -1,1 -2,3 -2,5l-2 0c-1,-6 -6,-11 -12,-11 -6,0 -11,5 -11,11l-3 0 5 -20 0 0c0,0 1,-4 6,-4 1,0 1,-1 1,-2 0,0 0,-1 -1,-1 -6,0 -8,4 -9,7l-5 21c0,0 0,0 0,0 0,0 0,0 0,0 0,0 0,0 0,0 0,0 0,0 0,0 0,0 0,0 0,0 0,0 0,0 0,0 0,0 0,0 0,0 0,1 0,1 0,1 0,0 0,0 0,0 0,0 0,0 0,0 0,0 0,0 0,0 0,0 0,0 0,0 0,0 0,0 1,0 0,0 0,0 0,0 0,0 0,0 0,0 0,0 0,0 0,0 0,0 0,0 0,0 0,1 0,1 0,1 0,0 0,0 0,0 0,0 0,0 0,0l0 0 5 0c0,0 0,1 0,1 0,0 0,0 0,0 0,-1 1,-2 2,-2 0,0 0,0 1,0 -1,0 -1,-1 -1,-1 0,0 0,-1 1,-1 0,-5 4,-8 8,-8 5,0 8,3 9,8 0,0 0,1 0,1 0,1 0,1 0,2 -1,4 -4,7 -9,7 -2,0 -4,-1 -5,-2 0,1 -1,1 -1,1 -1,0 -1,0 -1,0 0,1 0,1 0,1 2,2 4,3 7,3 6,0 11,-5 12,-10l2 0c1,5 6,10 12,10 6,0 11,-5 12,-10l3 0 0 0c1,0 1,0 1,0 0,0 0,0 0,0 0,0 0,0 0,-1 0,0 0,0 0,0 0,0 0,0 0,0 0,0 0,0 0,0 0,0 0,0 0,0 0,0 1,0 1,0 0,0 0,0 0,0 0,0 0,0 0,0 0,0 0,0 0,0 0,0 0,0 0,0 0,0 0,0 0,-1 0,0 0,0 0,0 0,0 0,0 0,0 0,0 0,0 0,0 0,0 0,0 0,0zm38 -18c-2,0 -4,-2 -4,-4 0,2 -2,4 -4,4 2,0 4,1 4,3 0,-2 2,-3 4,-3z"/>
   <path class="fil1" d="M11 34c-2,0 -3,-1 -3,-3 0,2 -1,3 -3,3 2,0 3,1 3,2 0,-1 1,-2 3,-2zm60 -16c0,0 1,-1 1,-1l8 0c5,0 8,3 8,7l0 0c0,5 -4,8 -9,8l-5 0 0 6c0,1 -1,2 -2,2 0,0 -1,-1 -1,-2l0 -20zm56 0c0,0 1,-1 1,-1 1,0 2,1 2,1l0 13 12 -14c1,0 1,0 1,0 1,0 1,1 1,1 0,1 0,1 0,1l-8 8 9 10c0,1 0,1 0,1 0,1 -1,2 -1,2 -1,0 -1,-1 -1,-1l-9 -10 -4 5 0 4c0,1 -1,2 -2,2 0,0 -1,-1 -1,-2l0 -20 0 0zm-25 0c0,0 0,-1 1,-1l0 0c1,0 1,0 2,1l13 17 0 -17c0,0 1,-1 2,-1 0,0 1,1 1,1l0 20c0,1 -1,2 -1,2l-1 0c0,0 0,-1 -1,-1l-14 -18 0 17c0,1 0,2 -1,2 -1,0 -1,-1 -1,-2l0 -20 0 0zm-9 0c0,0 0,-1 1,-1 1,0 1,1 1,1l0 20c0,1 0,2 -1,2 -1,0 -1,-1 -1,-2l0 -20zm-14 11c4,0 6,-2 6,-5l0 0c0,-3 -2,-4 -6,-4l-5 0 0 9 5 0 0 0zm-29 -13c-2,0 -4,-2 -4,-4 0,2 -2,4 -5,4 3,0 5,2 5,4 0,-2 2,-4 4,-4zm-12 3c-2,0 -3,-1 -3,-2 0,1 -1,2 -3,2 2,0 3,2 3,3 0,-1 1,-3 3,-3z"/>
  </g>
 </g>
</svg>
