<?xml version="1.0" encoding="UTF-8"?>
<!DOCTYPE svg PUBLIC "-//W3C//DTD SVG 1.1//EN" "http://www.w3.org/Graphics/SVG/1.1/DTD/svg11.dtd">
<!-- Creator: CorelDRAW X7 -->
<svg xmlns="http://www.w3.org/2000/svg" xml:space="preserve" width="145px" height="40px" version="1.1" style="shape-rendering:geometricPrecision; text-rendering:geometricPrecision; image-rendering:optimizeQuality; fill-rule:evenodd; clip-rule:evenodd"
viewBox="0 0 145 40"
 xmlns:xlink="http://www.w3.org/1999/xlink"
 enable-background="new 0 0 146.3 40.375">
 <defs>
  <style type="text/css">
   <![CDATA[
    .fil0 {fill:#FEFEFE}
   ]]>
  </style>
 </defs>
 <g id="Слой_x0020_1">
  <metadata id="CorelCorpID_0Corel-Layer"/>
  <path class="fil0" d="M127 18c0,-1 1,-1 1,-1 1,0 1,0 1,1l0 12 13 -13c0,0 1,0 1,0 1,0 1,0 1,1 0,0 0,1 0,1l-8 8 8 10c1,1 1,1 1,1 0,1 -1,2 -1,2 -1,0 -1,-1 -2,-1l-8 -10 -5 5 0 4c0,1 0,2 -1,2 0,0 -1,-1 -1,-2l0 -20 0 0 0 0zm-67 10c0,0 0,0 0,0 0,0 0,0 0,0 0,0 0,0 0,0l-5 -22c-1,-2 -3,-6 -9,-6 0,0 -1,1 -1,1 0,1 1,2 1,2 5,0 6,4 6,4l5 20 -3 0c0,-6 -5,-11 -11,-11 -6,0 -11,5 -12,11l-2 0c-1,-6 -6,-11 -12,-11 -6,0 -11,5 -11,11l-3 0 5 -20 0 0c0,0 1,-4 6,-4 1,0 1,-1 1,-2 0,0 0,-1 -1,-1 -6,0 -8,4 -9,6l-5 22c0,0 0,0 0,0 0,0 0,0 0,0 0,0 0,0 0,0 0,0 0,0 0,0 0,0 0,0 0,0 0,0 0,0 0,0 0,0 0,0 0,0 0,1 0,1 0,1 0,0 0,0 0,0 0,0 0,0 0,0 0,0 0,0 0,0 1,0 1,0 1,0 0,0 0,0 0,0 0,0 0,0 0,0 0,0 0,0 0,0 0,0 0,0 0,0 0,1 0,1 0,1 0,0 0,0 0,0 0,0 0,0 0,0 0,0 1,0 1,0l0 0 4 0c0,5 5,10 11,10 6,0 11,-5 12,-10l2 0c1,5 6,10 12,10 6,0 11,-5 11,-10l5 0 0 0c0,0 0,0 0,0 0,0 0,0 0,0 0,0 0,0 0,0 0,0 0,0 0,-1 0,0 0,0 0,0 0,0 0,0 0,0 1,0 1,0 1,0 0,0 0,0 0,0 0,0 0,0 0,0 0,0 0,0 0,0 0,0 0,0 0,0 0,0 0,0 0,0 0,0 0,0 0,-1 0,0 0,0 0,0 0,0 0,0 0,0 0,0 0,0 0,0 0,0 0,0 0,0l0 0 0 0zm-43 9c-4,0 -8,-3 -8,-7 0,-1 0,-1 0,-2 0,0 0,-1 0,-1 0,-5 4,-8 8,-8 5,0 9,3 9,8 0,0 0,1 0,1 0,1 0,1 0,2 0,4 -4,7 -9,7zm26 0c-5,0 -8,-3 -9,-7 0,-1 0,-1 0,-2 0,0 0,-1 0,-1 1,-5 4,-8 9,-8 4,0 8,3 9,8 0,0 0,1 0,1 0,1 0,1 0,2 -1,4 -5,7 -9,7zm28 -19c0,0 1,-1 1,-1l7 0c6,0 9,3 9,7l0 0c0,5 -4,7 -9,7l-5 0 0 7c0,1 -1,2 -2,2 0,0 -1,-1 -1,-2l0 -20 0 0zm8 11c4,0 6,-2 6,-5l0 0c0,-3 -2,-5 -6,-5l-5 0 0 10 5 0 0 0zm14 -11c0,-1 0,-1 1,-1 1,0 1,0 1,1l0 20c0,1 0,2 -1,2 -1,0 -1,-1 -1,-2l0 -20zm9 0c0,-1 0,-1 1,-1l1 0c0,0 0,0 1,1l13 17 0 -17c0,-1 1,-1 1,-1 1,0 2,0 2,1l0 20c0,1 -1,2 -2,2l0 0c0,0 -1,-1 -1,-1l-14 -18 0 17c0,1 0,2 -1,2 -1,0 -1,-1 -1,-2l0 -20 0 0 0 0z"/>
 </g>
</svg>
