<?xml version="1.0" encoding="UTF-8"?>
<!DOCTYPE svg PUBLIC "-//W3C//DTD SVG 1.1//EN" "http://www.w3.org/Graphics/SVG/1.1/DTD/svg11.dtd">
<!-- Creator: CorelDRAW X7 -->
<svg xmlns="http://www.w3.org/2000/svg" xml:space="preserve" width="50px" height="24px" version="1.1" style="shape-rendering:geometricPrecision; text-rendering:geometricPrecision; image-rendering:optimizeQuality; fill-rule:evenodd; clip-rule:evenodd"
viewBox="0 0 50 24"
 xmlns:xlink="http://www.w3.org/1999/xlink"
 enable-background="new 0 0 49.945 24.007">
 <defs>
  <style type="text/css">
   <![CDATA[
    .fil0 {fill:#FEFEFE}
   ]]>
  </style>
 </defs>
 <g id="Слой_x0020_1">
  <metadata id="CorelCorpID_0Corel-Layer"/>
  <g id="miu">
   <g id="editor_list_view_hambuger_menu_glyph">
    <g>
     <path id="path-1" class="fil0" d="M1 0c0,0 -1,0 -1,1l0 2c0,1 0,1 1,1l48 0c0,0 1,0 1,-1l0 -2c0,-1 0,-1 -1,-1l-48 0zm0 10c0,0 -1,0 -1,1l0 2c0,1 0,1 1,1l48 0c0,0 1,0 1,-1l0 -2c0,-1 0,-1 -1,-1l-48 0zm0 10c0,0 -1,0 -1,1l0 2c0,1 0,1 1,1l48 0c0,0 1,0 1,-1l0 -2c0,-1 0,-1 -1,-1l-48 0z"/>
    </g>
    <g>
     <path id="path-1_1_" class="fil0" d="M1 0c0,0 -1,0 -1,1l0 2c0,1 0,1 1,1l48 0c0,0 1,0 1,-1l0 -2c0,-1 0,-1 -1,-1l-48 0zm0 10c0,0 -1,0 -1,1l0 2c0,1 0,1 1,1l48 0c0,0 1,0 1,-1l0 -2c0,-1 0,-1 -1,-1l-48 0zm0 10c0,0 -1,0 -1,1l0 2c0,1 0,1 1,1l48 0c0,0 1,0 1,-1l0 -2c0,-1 0,-1 -1,-1l-48 0z"/>
    </g>
   </g>
  </g>
 </g>
</svg>
