<?xml version="1.0" encoding="UTF-8"?>
<!DOCTYPE svg PUBLIC "-//W3C//DTD SVG 1.1//EN" "http://www.w3.org/Graphics/SVG/1.1/DTD/svg11.dtd">
<!-- Creator: CorelDRAW X7 -->
<svg xmlns="http://www.w3.org/2000/svg" xml:space="preserve" width="23px" height="23px" version="1.1" style="shape-rendering:geometricPrecision; text-rendering:geometricPrecision; image-rendering:optimizeQuality; fill-rule:evenodd; clip-rule:evenodd"
viewBox="0 0 23 23"
 xmlns:xlink="http://www.w3.org/1999/xlink"
 enable-background="new 0 0 23.866 23.866">
 <defs>
  <style type="text/css">
   <![CDATA[
    .fil0 {fill:#FEFEFE}
   ]]>
  </style>
 </defs>
 <g id="Слой_x0020_1">
  <metadata id="CorelCorpID_0Corel-Layer"/>
  <path class="fil0" d="M15 12l8 -9c0,0 0,0 0,-1l-2 -2c0,0 -1,0 -1,0 0,0 0,0 0,0l-8 8 -9 -8c0,0 -1,0 -1,0l-2 2c0,1 0,1 0,1l8 9 -8 8c0,0 0,0 0,1l2 2c0,0 1,0 1,0 0,0 0,0 0,0l9 -8 8 8c0,0 0,0 0,0 0,0 1,0 1,0l2 -2c0,-1 0,-1 0,-1l-8 -8z"/>
 </g>
</svg>
