<?xml version="1.0" encoding="UTF-8"?>
<!DOCTYPE svg PUBLIC "-//W3C//DTD SVG 1.1//EN" "http://www.w3.org/Graphics/SVG/1.1/DTD/svg11.dtd">
<!-- Creator: CorelDRAW X7 -->
<svg xmlns="http://www.w3.org/2000/svg" xml:space="preserve" width="26px" height="26px" version="1.1" style="shape-rendering:geometricPrecision; text-rendering:geometricPrecision; image-rendering:optimizeQuality; fill-rule:evenodd; clip-rule:evenodd"
viewBox="0 0 26 26"
 xmlns:xlink="http://www.w3.org/1999/xlink"
 enable-background="new 0 0 26.752 26.752">
 <defs>
  <style type="text/css">
   <![CDATA[
    .fil0 {fill:#333333}
   ]]>
  </style>
 </defs>
 <g id="Слой_x0020_1">
  <metadata id="CorelCorpID_0Corel-Layer"/>
  <path class="fil0" d="M15 13l11 -11c0,0 0,-1 0,-2 -1,0 -2,0 -2,0l-11 11 -11 -11c0,0 -1,0 -2,0 0,1 0,2 0,2l11 11 -11 11c0,0 0,1 0,2 1,0 1,0 1,0 1,0 1,0 1,0l11 -11 11 11c0,0 0,0 1,0 0,0 0,0 1,0 0,-1 0,-2 0,-2l-11 -11z"/>
 </g>
</svg>
