<?xml version="1.0" encoding="UTF-8"?>
<!DOCTYPE svg PUBLIC "-//W3C//DTD SVG 1.1//EN" "http://www.w3.org/Graphics/SVG/1.1/DTD/svg11.dtd">
<!-- Creator: CorelDRAW X7 -->
<svg xmlns="http://www.w3.org/2000/svg" xml:space="preserve" width="6.6886mm" height="5.4186mm" version="1.1" style="shape-rendering:geometricPrecision; text-rendering:geometricPrecision; image-rendering:optimizeQuality; fill-rule:evenodd; clip-rule:evenodd"
viewBox="0 0 669 542"
 xmlns:xlink="http://www.w3.org/1999/xlink"
 enable-background="new 0 0 78.673 63.788">
 <defs>
  <style type="text/css">
   <![CDATA[
    .fil0 {fill:black}
   ]]>
  </style>
 </defs>
 <g id="Слой_x0020_1">
  <metadata id="CorelCorpID_0Corel-Layer"/>
  <path class="fil0" d="M615 337c-24,-21 -56,-31 -98,-31l-48 0c4,-35 11,-63 21,-84 9,-22 24,-43 43,-64 20,-21 40,-38 60,-51 19,-13 44,-29 76,-47l-36 -60c-21,13 -47,29 -78,49 -30,20 -60,45 -87,73 -27,28 -50,60 -68,96 -19,36 -28,75 -28,119 0,61 12,111 37,148 25,38 66,57 123,57 37,0 66,-12 87,-37 21,-24 32,-50 32,-79 0,-39 -12,-69 -36,-89zm-453 -179c20,-21 40,-38 59,-51 19,-13 45,-29 76,-47l-36 -60c-21,13 -46,29 -77,49 -31,20 -60,45 -88,73 -26,28 -49,60 -68,96 -19,36 -28,75 -28,119 0,61 12,111 37,148 25,38 66,57 124,57 37,0 65,-12 87,-37 21,-24 31,-50 31,-79 0,-39 -12,-69 -35,-89 -24,-21 -57,-31 -98,-31l-49 0c4,-35 11,-63 22,-85 10,-22 24,-43 43,-63z"/>
 </g>
</svg>
