<?xml version="1.0" encoding="UTF-8"?>
<!DOCTYPE svg PUBLIC "-//W3C//DTD SVG 1.1//EN" "http://www.w3.org/Graphics/SVG/1.1/DTD/svg11.dtd">
<!-- Creator: CorelDRAW X7 -->
<svg xmlns="http://www.w3.org/2000/svg" xml:space="preserve" width="24px" height="20px" version="1.1" style="shape-rendering:geometricPrecision; text-rendering:geometricPrecision; image-rendering:optimizeQuality; fill-rule:evenodd; clip-rule:evenodd"
viewBox="0 0 24 20"
 xmlns:xlink="http://www.w3.org/1999/xlink"
 enable-background="new 0 0 17.5 14.663">
 <defs>
  <style type="text/css">
   <![CDATA[
    .fil0 {fill:#F42357}
   ]]>
  </style>
 </defs>
 <g id="Слой_x0020_1">
  <metadata id="CorelCorpID_0Corel-Layer"/>
  <g id="W6EeEF_1_">
   <g>
    <path class="fil0" d="M15 0c3,-1 5,0 6,2 1,-1 1,-1 2,-1 0,1 0,2 -1,2 1,0 2,-1 2,-1 0,2 -1,3 -2,3 -1,9 -5,15 -14,15 -1,0 0,0 -1,0 -1,0 -6,-1 -7,-2 3,0 5,-1 7,-2 -2,0 -4,-1 -5,-4 1,0 1,0 2,0 -2,-1 -4,-2 -3,-5 0,1 1,1 1,1 -1,-1 -2,-5 -1,-7 3,3 6,5 10,5 1,-3 2,-5 4,-6z"/>
   </g>
  </g>
 </g>
</svg>
